<?xml version="1.0" standalone="no"?>
<!DOCTYPE svg PUBLIC "-//W3C//DTD SVG 20010904//EN"
 "http://www.w3.org/TR/2001/REC-SVG-20010904/DTD/svg10.dtd">
<svg version="1.0" xmlns="http://www.w3.org/2000/svg"
 width="76.000000pt" height="110.000000pt" viewBox="0 0 76.000000 110.000000"
 preserveAspectRatio="xMidYMid meet">

<g transform="translate(0.000000,110.000000) scale(0.100000,-0.100000)"
fill="#000000" stroke="none">
<path d="M92 1091 c-9 -6 -12 -65 -10 -247 3 -231 4 -239 23 -239 19 0 20 8
23 236 2 184 -1 239 -11 247 -7 6 -18 7 -25 3z"/>
<path d="M6 1075 c-10 -26 -7 -692 3 -763 21 -140 107 -240 250 -287 40 -13
75 -16 140 -13 106 5 181 37 251 107 92 92 114 181 108 437 -3 182 -10 201
-79 236 -38 20 -133 24 -191 8 -53 -15 -100 -62 -96 -96 4 -39 24 -41 43 -5
38 75 185 92 251 30 24 -22 24 -26 24 -215 0 -173 -2 -199 -21 -250 -28 -75
-86 -137 -167 -176 -57 -28 -74 -32 -146 -32 -71 1 -91 5 -148 33 -73 34 -120
81 -152 150 -20 44 -21 66 -26 446 -4 358 -7 400 -21 403 -9 2 -19 -4 -23 -13z"/>
<path d="M162 758 c3 -145 4 -153 23 -153 19 0 20 7 20 150 0 148 0 150 -23
153 l-23 3 3 -153z"/>
<path d="M128 549 c-16 -9 -18 -26 -18 -121 0 -139 12 -181 70 -239 131 -131
371 -96 446 65 21 44 24 66 24 168 0 106 -2 118 -19 128 -26 13 -480 13 -503
-1z"/>
</g>
</svg>
